PathFileType	4	(X/Y/Z)	C:\Users\86182\Documents\cortex\Trimmed_M1_H3.trc
DataRate	CameraRate	NumFrames	NumMarkers	Units	OrigDataRate	OrigDataStartFrame	OrigNumFrames
100.00	100.00	       130	2	mm	100.00	1	       951
Frame#	Time	gripper			box			
		X1	Y1	Z1	X2	Y2	Z2	

1	0.000	217.73805	200.81470	186.59996	225.47650	198.96950	48.19669	
2	0.010	217.73805	200.81470	186.59996	225.49846	198.98145	48.17700	
3	0.020	217.73805	200.81470	186.59996	225.51805	198.99210	48.15951	
4	0.030	217.74249	200.81664	186.60023	225.53436	199.00093	48.14505	
5	0.040	217.73805	200.81470	186.59996	225.54770	199.00812	48.13335	
6	0.050	217.73805	200.81470	186.59996	225.55844	199.01389	48.12408	
7	0.060	217.73805	200.81470	186.59996	225.56656	199.01820	48.11725	
8	0.070	217.73805	200.81470	186.59996	225.57198	199.02106	48.11283	
9	0.080	217.73805	200.81470	186.59996	225.57462	199.02243	48.11078	
10	0.090	217.73805	200.81470	186.59996	225.57478	199.02246	48.11087	
11	0.100	217.73805	200.81470	186.59996	225.57364	199.02176	48.11229	
12	0.110	217.75153	200.82059	186.60072	225.57317	199.02132	48.11359	
13	0.120	217.73805	200.81470	186.59996	225.57547	199.02223	48.11318	
14	0.130	217.73805	200.81470	186.59996	225.58228	199.02541	48.10973	
15	0.140	217.73805	200.81470	186.59996	225.59468	199.03140	48.10242	
16	0.150	217.74249	200.81664	186.60023	225.61246	199.04010	48.09139	
17	0.160	217.75153	200.82059	186.60072	225.63344	199.05040	48.07815	
18	0.170	217.74249	200.81664	186.60023	225.65407	199.06055	48.06509	
19	0.180	217.73805	200.81470	186.59996	225.67090	199.06882	48.05444	
20	0.190	217.73805	200.81470	186.59996	225.68195	199.07426	48.04739	
21	0.200	217.82269	200.85173	186.60472	225.68733	199.07697	48.04375	
22	0.210	217.81819	200.84976	186.60449	225.68852	199.07762	48.04262	
23	0.220	217.78279	200.83427	186.60246	225.68692	199.07690	48.04322	
24	0.230	217.88095	200.87947	186.57983	225.68381	199.07545	48.04479	
25	0.240	217.73805	200.81470	186.59996	225.68102	199.07416	48.04617	
26	0.250	217.77835	200.83234	186.60222	225.68016	199.07382	48.04630	
27	0.260	217.82713	200.85367	186.60493	225.68178	199.07471	48.04484	
28	0.270	217.79610	200.84009	186.60323	225.68564	199.07666	48.04206	
29	0.280	217.82777	200.85423	186.60149	225.69080	199.07922	48.03865	
30	0.290	217.81819	200.84976	186.60449	225.69569	199.08163	48.03557	
31	0.300	217.80496	200.84396	186.60373	225.69847	199.08298	48.03392	
32	0.310	217.77835	200.83234	186.60222	225.69736	199.08243	48.03466	
33	0.320	217.80940	200.84592	186.60399	225.69092	199.07928	48.03855	
34	0.330	217.77599	200.83214	186.59142	225.67839	199.07321	48.04606	
35	0.340	217.82341	200.85233	186.60121	225.66054	199.06453	48.05684	
36	0.350	217.81819	200.84976	186.60449	225.63971	199.05437	48.06959	
37	0.360	217.80940	200.84592	186.60399	225.61870	199.04407	48.08274	
38	0.370	217.79610	200.84009	186.60323	225.59958	199.03462	48.09504	
39	0.380	217.73805	200.81470	186.59996	225.58391	199.02681	48.10550	
40	0.390	217.73805	200.81470	186.59996	225.57306	199.02133	48.11313	
41	0.400	217.73805	200.81470	186.59996	225.56801	199.01871	48.11707	
42	0.410	217.73805	200.81470	186.59996	225.56877	199.01897	48.11715	
43	0.420	217.73805	200.81470	186.59996	225.57428	199.02162	48.11397	
44	0.430	217.73805	200.81470	186.59996	225.58310	199.02596	48.10840	
45	0.440	217.74249	200.81664	186.60023	225.59383	199.03128	48.10131	
46	0.450	217.76498	200.82648	186.60147	225.60518	199.03699	48.09354	
47	0.460	217.73805	200.81470	186.59996	225.61591	199.04240	48.08601	
48	0.470	217.75603	200.82256	186.60095	225.62479	199.04692	48.07964	
49	0.480	217.76941	200.82841	186.60173	225.63094	199.05006	48.07510	
50	0.490	217.73805	200.81470	186.59996	225.63420	199.05177	48.07254	
51	0.500	217.77385	200.83035	186.60197	225.63521	199.05234	48.07155	
52	0.510	217.80054	200.84203	186.60349	225.63501	199.05229	48.07142	
53	0.520	217.78793	200.83681	186.59921	225.63470	199.05217	48.07148	
54	0.530	217.79610	200.84009	186.60323	225.63493	199.05229	48.07129	
55	0.540	217.75153	200.82059	186.60072	225.63565	199.05263	48.07086	
56	0.550	217.74709	200.81865	186.60045	225.63637	199.05296	48.07049	
57	0.560	217.73805	200.81470	186.59996	225.63649	199.05301	48.07051	
58	0.570	217.75603	200.82256	186.60095	225.63521	199.05235	48.07142	
59	0.580	217.76498	200.82648	186.60147	225.63173	199.05063	48.07371	
60	0.590	217.76941	200.82841	186.60173	225.62601	199.04779	48.07742	
61	0.600	217.78793	200.83681	186.59921	225.61905	199.04434	48.08196	
62	0.610	217.76047	200.82449	186.60121	225.61217	199.04092	48.08654	
63	0.620	217.73805	200.81470	186.59996	225.60637	199.03802	48.09047	
64	0.630	217.75603	200.82256	186.60095	225.60249	199.03607	48.09314	
65	0.640	217.77835	200.83234	186.60222	225.60138	199.03551	48.09391	
66	0.650	217.76498	200.82648	186.60147	225.60315	199.03641	48.09263	
67	0.660	217.75153	200.82059	186.60072	225.60696	199.03835	48.08989	
68	0.670	217.77385	200.83035	186.60197	225.61191	199.04085	48.08640	
69	0.680	217.73805	200.81470	186.59996	225.61757	199.04370	48.08252	
70	0.690	217.73805	200.81470	186.59996	225.62390	199.04686	48.07831	
71	0.700	217.74249	200.81664	186.60023	225.63116	199.05046	48.07364	
72	0.710	217.74249	200.81664	186.60023	225.63966	199.05463	48.06832	
73	0.720	217.73805	200.81470	186.59996	225.64880	199.05911	48.06271	
74	0.730	217.73805	200.81470	186.59996	225.65689	199.06303	48.05788	
75	0.740	217.73805	200.81470	186.59996	225.66205	199.06551	48.05496	
76	0.750	217.73805	200.81470	186.59996	225.66342	199.06609	48.05449	
77	0.760	217.76941	200.82841	186.60173	225.66183	199.06517	48.05597	
78	0.770	217.78279	200.83427	186.60246	225.65927	199.06374	48.05811	
79	0.780	217.74709	200.81865	186.60045	225.65739	199.06259	48.05981	
80	0.790	217.75603	200.82256	186.60095	225.65645	199.06189	48.06082	
81	0.800	217.75153	200.82059	186.60072	225.65540	199.06113	48.06168	
82	0.810	217.80496	200.84396	186.60373	225.65283	199.05966	48.06323	
83	0.820	217.79610	200.84009	186.60323	225.64767	199.05704	48.06612	
84	0.830	217.79610	200.84009	186.60323	225.63956	199.05315	48.07063	
85	0.840	217.80054	200.84203	186.60349	225.62878	199.04826	48.07676	
86	0.850	217.82033	200.85155	186.59398	225.61597	199.04279	48.08444	
87	0.860	217.76047	200.82449	186.60121	225.60165	199.03717	48.09363	
88	0.870	217.75153	200.82059	186.60072	225.58588	199.03156	48.10452	
89	0.880	217.73805	200.81470	186.59996	225.56804	199.02571	48.11765	
90	0.890	217.73805	200.81470	186.59996	225.54744	199.01915	48.13354	
91	0.900	217.73805	200.81470	186.59996	225.52464	199.01163	48.15175	
92	0.910	217.76047	200.82449	186.60121	225.50249	199.00346	48.17015	
93	0.920	217.73805	200.81470	186.59996	225.48599	198.99536	48.18484	
94	0.930	217.73805	200.81470	186.59996	225.48177	198.98785	48.19068	
95	0.940	217.73805	200.81470	186.59996	225.49730	198.98112	48.18175	
96	0.950	217.78279	200.83427	186.60246	225.53986	198.97462	48.15236	
97	0.960	217.73805	200.81470	186.59996	225.61414	198.96683	48.09861	
98	0.970	217.80940	200.84592	186.60399	225.71936	198.95537	48.02053	
99	0.980	217.63171	200.86455	186.77933	225.84525	198.93738	47.92481	
100	0.990	217.58295	200.87834	186.84283	225.96718	198.91048	47.82838	
101	1.000	217.35867	200.85208	187.12241	226.04124	198.87425	47.76218	
102	1.010	217.14914	200.79391	187.26807	226.00041	198.83240	47.77423	
103	1.020	217.20671	200.81660	187.30217	225.75342	198.79515	47.93073	
104	1.030	217.25089	200.82909	187.39003	225.18718	198.78014	48.31369	
105	1.040	217.51994	200.83586	187.37946	224.17540	198.80923	49.01375	
106	1.050	217.52116	200.77336	187.74634	222.60397	198.90158	50.11272	
107	1.060	217.60254	200.71565	188.00716	220.42505	199.06639	51.64883	
108	1.070	217.69452	200.75363	188.04221	217.74071	199.29562	53.56198	
109	1.080	217.51311	200.66211	188.34712	214.85516	199.55945	55.65750	
110	1.090	217.88094	200.64598	188.67314	212.17496	199.81627	57.66887	
111	1.100	217.75282	200.74026	188.92329	210.00253	200.03447	59.39193	
112	1.110	217.42117	200.82222	189.72592	208.43739	200.20335	60.75209	
113	1.120	217.33034	200.77373	190.10170	207.42706	200.32722	61.77460	
114	1.130	217.74428	200.70665	190.21048	206.84662	200.41597	62.53412	
115	1.140	217.60645	200.85902	190.75743	206.55310	200.47986	63.11837	
116	1.150	217.77553	200.84161	191.20227	206.42139	200.52762	63.60459	
117	1.160	217.50951	200.80095	191.81757	206.36409	200.56581	64.04766	
118	1.170	217.67026	200.93410	192.04132	206.33783	200.59793	64.47559	
119	1.180	217.53346	200.93976	192.56079	206.34302	200.62354	64.88802	
120	1.190	217.41953	200.88647	193.00238	206.42241	200.63840	65.25698	
121	1.200	217.44279	200.86949	193.41402	206.65866	200.63460	65.52934	
122	1.210	217.49980	200.91119	193.95427	207.16719	200.60048	65.63125	
123	1.220	217.64864	201.00339	194.47614	208.07837	200.52252	65.47799	
124	1.230	217.62573	200.90341	194.81946	209.50627	200.39006	64.99404	
125	1.240	217.44069	200.98285	195.15916	211.49928	200.20010	64.14680	
126	1.250	217.66422	200.97414	195.55772	213.96584	199.96321	62.99514	
127	1.260	217.75389	200.91783	196.15221	216.60132	199.70973	61.73363	
128	1.270	217.85602	200.89346	196.49973	218.91313	199.48788	60.67403	
129	1.280	217.67403	200.91635	196.81219	220.39268	199.34776	60.13703	
130	1.290	217.54727	201.01192	197.45679	220.70703	199.32225	60.33401	
